<svg width="84" height="85" viewBox="0 0 84 85" fill="none" xmlns="http://www.w3.org/2000/svg">
<path fill-rule="evenodd" clip-rule="evenodd" d="M51.9124 83.1924C70.3247 78.7376 84 62.1508 84 42.37C84 19.1746 65.196 0.371094 42 0.371094C18.804 0.371094 0 19.1746 0 42.37C0 54.4186 5.07371 65.2822 13.2012 72.941L22.6695 52.6366C22.6695 52.6366 22.8512 52.2997 22.8483 51.7873C22.8454 51.2749 22.6695 50.938 22.6695 50.938L17.3916 39.6196C16.5338 37.7801 17.3297 35.5935 19.1691 34.7358C21.0086 33.8781 23.1951 34.6739 24.0529 36.5133L27.6148 44.1524C28.3105 43.4142 29.2719 42.9955 30.2923 42.9955H66.1088C68.1384 42.9955 69.7838 44.6407 69.7838 46.6704C69.7838 48.7001 68.1384 50.3506 66.1088 50.3506H52.9889C52.9889 50.3506 52.6011 50.3263 52.2632 50.6372C51.9254 50.9481 51.9342 51.3982 51.9342 51.3982V82.7894C51.9342 82.9256 51.9268 83.0601 51.9124 83.1924ZM38.1791 84.1974L30.8798 68.5457C30.8798 68.5457 30.7536 68.2929 30.487 68.1377C30.2203 67.9825 29.9719 67.9906 29.9719 67.9906H24.2641C24.2641 67.9906 23.9655 67.9906 23.7071 68.1662C23.4487 68.3417 23.3536 68.5665 23.3536 68.5665L19.1366 77.6064C24.7108 81.2306 31.1987 83.5679 38.1791 84.1974ZM44.6897 60.64H35.9766C35.9766 60.64 35.6572 60.6482 35.3923 60.4678C35.1273 60.2873 35.02 60.039 35.02 60.039L30.5039 50.35L43.6397 50.3499C43.6397 50.3499 44.0561 50.328 44.3845 50.6577C44.713 50.9873 44.6897 51.4001 44.6897 51.4001V60.64ZM44.5822 80.545V67.9883H39.6503C39.6503 67.9883 39.3202 67.9858 39.1487 68.2558C38.9772 68.5259 39.1407 68.8776 39.1407 68.8776L44.5822 80.545ZM35.2985 62.742C34.4824 62.742 33.7401 62.2671 33.3952 61.5275L22.1468 37.4058C21.7792 36.6175 20.8421 36.2764 20.0538 36.644C19.2654 37.0116 18.9243 37.9487 19.2919 38.737L24.966 50.9047C25.2283 51.4673 25.2283 52.1171 24.966 52.6797L11.2339 82.1275C10.8663 82.9159 11.2073 83.8529 11.9957 84.2205C12.784 84.5881 13.7211 84.2471 14.0887 83.4587L21.7161 67.1023C22.061 66.3627 22.8032 65.8899 23.6193 65.8899H30.616C31.4321 65.8899 32.1744 66.3627 32.5193 67.1023L40.1481 83.462C40.5157 84.2503 41.4528 84.5914 42.2412 84.2238C43.0295 83.8562 43.3706 82.9191 43.003 82.1308L36.6919 68.5839C36.0881 67.3011 37.0131 65.8899 38.3772 65.8899H44.0563C44.9261 65.8899 45.6313 65.1847 45.6313 64.3149C45.6313 63.4451 44.9261 62.742 44.0563 62.742H35.2985ZM28.7259 46.6754C28.7259 45.8056 29.4311 45.1004 30.3009 45.1004H66.2109C67.0808 45.1004 67.7859 45.8056 67.7859 46.6754C67.7859 47.5452 67.0808 48.252 66.2109 48.252H52.0359C50.8761 48.252 49.9359 49.1905 49.9359 50.3503V82.7944C49.9359 83.6642 49.2308 84.3694 48.3609 84.3694C47.4911 84.3694 46.7859 83.6642 46.7859 82.7944V50.3503C46.7859 49.1905 45.8457 48.252 44.6859 48.252H30.3009C29.4311 48.252 28.7259 47.5452 28.7259 46.6754ZM27.1152 62.742C28.3329 62.742 29.3202 61.7548 29.3202 60.537C29.3202 59.3192 28.3329 58.332 27.1152 58.332C25.8974 58.332 24.9102 59.3192 24.9102 60.537C24.9102 61.7548 25.8974 62.742 27.1152 62.742Z" fill="white"/>
</svg>
